<svg width="240" height="240" viewBox="0 0 240 240" fill="none" xmlns="http://www.w3.org/2000/svg">
<path d="M119.984 119.984L119.984 0C135.468 0 150.806 2.997 165.15 8.82566L119.984 119.984Z" fill="#277C78"/>
<path d="M119.984 119.984L165.15 8.82562C226.542 33.7702 256.087 103.759 231.143 165.15C206.198 226.541 136.209 256.087 74.8181 231.142C47.9302 220.217 25.9136 199.916 12.8474 174.001L119.984 119.984Z" fill="#82C9D7"/>
<path d="M119.984 119.984L12.8474 174.001C-6.20309 136.217 -3.94214 91.1916 18.7976 55.5058L119.984 119.984Z" fill="#F2CDAC"/>
<path d="M119.984 119.984L18.7976 55.5058C40.8288 20.932 78.9876 0 119.984 0V119.984Z" fill="#626070"/>
<circle cx="120" cy="120" r="81" fill="white"/>
<circle opacity="0.25" cx="119.75" cy="119.75" r="93.7501" fill="white"/>
<path d="M88.9996 119.32C86.2263 119.32 83.9756 118.765 82.2476 117.656C80.5196 116.536 79.5276 114.813 79.2716 112.488L84.1356 112.392C84.3916 113.448 84.941 114.253 85.7836 114.808C86.637 115.352 87.7036 115.624 88.9836 115.624C89.7516 115.624 90.429 115.501 91.0156 115.256C91.613 115 92.0823 114.659 92.4236 114.232C92.765 113.795 92.9356 113.299 92.9356 112.744C92.9356 111.891 92.6636 111.256 92.1196 110.84C91.5756 110.413 90.7383 110.072 89.6076 109.816L85.8156 109C84.0556 108.648 82.6423 107.949 81.5756 106.904C80.5196 105.848 79.981 104.435 79.9596 102.664C79.949 101.213 80.3383 99.96 81.1276 98.904C81.9276 97.8373 83.0103 97.016 84.3756 96.44C85.7516 95.864 87.293 95.576 88.9996 95.576C90.749 95.576 92.2583 95.8907 93.5276 96.52C94.8076 97.1387 95.789 97.976 96.4716 99.032C97.165 100.077 97.501 101.235 97.4796 102.504L92.7596 102.584C92.6103 101.56 92.269 100.755 91.7356 100.168C91.2023 99.5813 90.317 99.288 89.0796 99.288C88.4396 99.288 87.869 99.3573 87.3676 99.496C86.8663 99.6347 86.4343 99.832 86.0716 100.088C85.709 100.333 85.4316 100.627 85.2396 100.968C85.0583 101.309 84.9676 101.693 84.9676 102.12C84.9676 102.792 85.1916 103.325 85.6396 103.72C86.0983 104.104 86.957 104.461 88.2156 104.792L91.9436 105.704C94.045 106.205 95.5596 107.064 96.4876 108.28C97.4263 109.496 97.8956 110.973 97.8956 112.712C97.8956 114.045 97.5276 115.208 96.7916 116.2C96.0663 117.192 95.037 117.96 93.7036 118.504C92.3703 119.048 90.8023 119.32 88.9996 119.32ZM86.9996 92.552H91.0476V96.712H86.9996V92.552ZM86.9196 117.896H90.9516V122.056H86.9196V117.896ZM101.021 102.984C101.021 101.32 101.41 99.9387 102.189 98.84C102.978 97.7413 104.04 96.92 105.373 96.376C106.706 95.8213 108.189 95.544 109.821 95.544C111.549 95.544 113.085 95.768 114.429 96.216C115.784 96.664 116.85 97.3467 117.629 98.264C118.408 99.1813 118.797 100.344 118.797 101.752C118.797 102.893 118.466 103.901 117.805 104.776C117.144 105.64 116.066 106.328 114.573 106.84C115.426 107.075 116.216 107.432 116.941 107.912C117.666 108.392 118.248 109.005 118.685 109.752C119.122 110.499 119.341 111.395 119.341 112.44C119.341 113.571 119.09 114.568 118.589 115.432C118.088 116.296 117.394 117.021 116.509 117.608C115.624 118.195 114.6 118.632 113.437 118.92C112.274 119.208 111.032 119.352 109.709 119.352C107.853 119.341 106.269 119.037 104.957 118.44C103.656 117.832 102.653 116.968 101.949 115.848C101.256 114.728 100.898 113.395 100.877 111.848H105.373C105.597 113.16 106.109 114.109 106.909 114.696C107.709 115.283 108.658 115.576 109.757 115.576C110.717 115.576 111.538 115.437 112.221 115.16C112.914 114.883 113.442 114.499 113.805 114.008C114.178 113.507 114.365 112.936 114.365 112.296C114.365 111.635 114.173 111.064 113.789 110.584C113.416 110.104 112.893 109.731 112.221 109.464C111.549 109.187 110.781 109.037 109.917 109.016L107.709 108.936V105.224L109.693 105.112C110.525 105.08 111.25 104.925 111.869 104.648C112.488 104.371 112.968 104.003 113.309 103.544C113.661 103.075 113.837 102.547 113.837 101.96C113.837 101.395 113.661 100.904 113.309 100.488C112.957 100.072 112.472 99.7467 111.853 99.512C111.234 99.2773 110.525 99.16 109.725 99.16C108.989 99.16 108.312 99.2827 107.693 99.528C107.074 99.7733 106.568 100.179 106.173 100.744C105.778 101.299 105.549 102.045 105.485 102.984H101.021ZM122.208 102.984C122.208 101.32 122.598 99.9387 123.376 98.84C124.166 97.7413 125.227 96.92 126.56 96.376C127.894 95.8213 129.376 95.544 131.008 95.544C132.736 95.544 134.272 95.768 135.616 96.216C136.971 96.664 138.038 97.3467 138.816 98.264C139.595 99.1813 139.984 100.344 139.984 101.752C139.984 102.893 139.654 103.901 138.992 104.776C138.331 105.64 137.254 106.328 135.76 106.84C136.614 107.075 137.403 107.432 138.128 107.912C138.854 108.392 139.435 109.005 139.872 109.752C140.31 110.499 140.528 111.395 140.528 112.44C140.528 113.571 140.278 114.568 139.776 115.432C139.275 116.296 138.582 117.021 137.696 117.608C136.811 118.195 135.787 118.632 134.624 118.92C133.462 119.208 132.219 119.352 130.896 119.352C129.04 119.341 127.456 119.037 126.144 118.44C124.843 117.832 123.84 116.968 123.136 115.848C122.443 114.728 122.086 113.395 122.064 111.848H126.56C126.784 113.16 127.296 114.109 128.096 114.696C128.896 115.283 129.846 115.576 130.944 115.576C131.904 115.576 132.726 115.437 133.408 115.16C134.102 114.883 134.63 114.499 134.992 114.008C135.366 113.507 135.552 112.936 135.552 112.296C135.552 111.635 135.36 111.064 134.976 110.584C134.603 110.104 134.08 109.731 133.408 109.464C132.736 109.187 131.968 109.037 131.104 109.016L128.896 108.936V105.224L130.88 105.112C131.712 105.08 132.438 104.925 133.056 104.648C133.675 104.371 134.155 104.003 134.496 103.544C134.848 103.075 135.024 102.547 135.024 101.96C135.024 101.395 134.848 100.904 134.496 100.488C134.144 100.072 133.659 99.7467 133.04 99.512C132.422 99.2773 131.712 99.16 130.912 99.16C130.176 99.16 129.499 99.2827 128.88 99.528C128.262 99.7733 127.755 100.179 127.36 100.744C126.966 101.299 126.736 102.045 126.672 102.984H122.208ZM152.564 95.544C154.153 95.544 155.572 95.7947 156.82 96.296C158.079 96.7973 159.071 97.5333 159.796 98.504C160.521 99.464 160.884 100.648 160.884 102.056C160.884 103.24 160.559 104.248 159.908 105.08C159.257 105.912 158.457 106.552 157.508 107C158.212 107.149 158.9 107.501 159.572 108.056C160.255 108.6 160.815 109.272 161.252 110.072C161.689 110.861 161.908 111.699 161.908 112.584C161.908 113.96 161.519 115.155 160.74 116.168C159.972 117.181 158.884 117.965 157.476 118.52C156.079 119.064 154.441 119.336 152.564 119.336C150.708 119.336 149.081 119.064 147.684 118.52C146.287 117.965 145.199 117.181 144.42 116.168C143.641 115.155 143.252 113.96 143.252 112.584C143.252 111.699 143.471 110.861 143.908 110.072C144.345 109.272 144.9 108.6 145.572 108.056C146.244 107.501 146.937 107.149 147.652 107C146.703 106.552 145.897 105.912 145.236 105.08C144.575 104.248 144.244 103.24 144.244 102.056C144.244 100.648 144.607 99.464 145.332 98.504C146.068 97.5333 147.065 96.7973 148.324 96.296C149.583 95.7947 150.996 95.544 152.564 95.544ZM152.564 105.192C153.631 105.192 154.505 104.909 155.188 104.344C155.881 103.768 156.228 102.973 156.228 101.96C156.228 100.957 155.881 100.163 155.188 99.576C154.495 98.9893 153.62 98.696 152.564 98.696C151.519 98.696 150.649 98.9893 149.956 99.576C149.263 100.163 148.916 100.957 148.916 101.96C148.916 102.973 149.263 103.768 149.956 104.344C150.649 104.909 151.519 105.192 152.564 105.192ZM152.564 115.816C153.929 115.816 154.996 115.512 155.764 114.904C156.543 114.285 156.932 113.469 156.932 112.456C156.932 111.773 156.756 111.176 156.404 110.664C156.052 110.141 155.551 109.731 154.9 109.432C154.249 109.133 153.471 108.984 152.564 108.984C151.679 108.984 150.911 109.133 150.26 109.432C149.609 109.731 149.108 110.141 148.756 110.664C148.404 111.176 148.228 111.773 148.228 112.456C148.228 113.469 148.617 114.285 149.396 114.904C150.175 115.512 151.231 115.816 152.564 115.816Z" fill="#201F24"/>
<path d="M87.3841 147.12C86.8121 147.12 86.3121 146.998 85.8841 146.754C85.4561 146.506 85.1241 146.144 84.8881 145.668C84.6521 145.192 84.5341 144.61 84.5341 143.922C84.5341 143.274 84.6441 142.706 84.8641 142.218C85.0841 141.73 85.4061 141.352 85.8301 141.084C86.2581 140.812 86.7761 140.676 87.3841 140.676C87.9561 140.676 88.4521 140.802 88.8721 141.054C89.2961 141.302 89.6241 141.668 89.8561 142.152C90.0881 142.636 90.2041 143.226 90.2041 143.922C90.2041 144.554 90.0961 145.11 89.8801 145.59C89.6681 146.07 89.3521 146.446 88.9321 146.718C88.5161 146.986 88.0001 147.12 87.3841 147.12ZM87.3841 146.244C87.7561 146.244 88.0701 146.15 88.3261 145.962C88.5821 145.774 88.7761 145.504 88.9081 145.152C89.0401 144.8 89.1061 144.382 89.1061 143.898C89.1061 143.454 89.0481 143.056 88.9321 142.704C88.8161 142.348 88.6301 142.066 88.3741 141.858C88.1221 141.65 87.7921 141.546 87.3841 141.546C87.0081 141.546 86.6901 141.64 86.4301 141.828C86.1701 142.012 85.9721 142.28 85.8361 142.632C85.7041 142.984 85.6381 143.406 85.6381 143.898C85.6381 144.334 85.6981 144.73 85.8181 145.086C85.9381 145.442 86.1261 145.724 86.3821 145.932C86.6381 146.14 86.9721 146.244 87.3841 146.244ZM94.9143 140.796V141.606H93.4083V147H92.2923V141.606H90.9843V140.796H92.2923V139.836C92.2923 139.344 92.4183 138.97 92.6703 138.714C92.9223 138.454 93.2983 138.324 93.7983 138.324H94.9683L94.9743 139.11H94.0443C93.7923 139.11 93.6203 139.178 93.5283 139.314C93.4363 139.45 93.3903 139.656 93.3903 139.932V140.796H94.9143ZM102.201 147.12C101.285 147.12 100.525 146.924 99.9209 146.532C99.3209 146.136 98.9629 145.552 98.8469 144.78L100.011 144.708C100.139 145.196 100.395 145.562 100.779 145.806C101.163 146.05 101.635 146.172 102.195 146.172C102.531 146.172 102.845 146.114 103.137 145.998C103.433 145.882 103.671 145.72 103.851 145.512C104.035 145.304 104.127 145.058 104.127 144.774C104.127 144.394 104.013 144.09 103.785 143.862C103.561 143.634 103.203 143.454 102.711 143.322L101.217 142.932C100.573 142.768 100.063 142.51 99.6869 142.158C99.3109 141.806 99.1209 141.334 99.1169 140.742C99.1129 140.242 99.2429 139.802 99.5069 139.422C99.7749 139.042 100.143 138.746 100.611 138.534C101.083 138.322 101.627 138.216 102.243 138.216C102.835 138.216 103.345 138.33 103.773 138.558C104.205 138.782 104.539 139.08 104.775 139.452C105.015 139.824 105.143 140.23 105.159 140.67L104.031 140.73C103.943 140.214 103.753 139.824 103.461 139.56C103.173 139.292 102.767 139.158 102.243 139.158C101.995 139.158 101.755 139.19 101.523 139.254C101.295 139.314 101.089 139.406 100.905 139.53C100.725 139.654 100.581 139.808 100.473 139.992C100.365 140.176 100.311 140.39 100.311 140.634C100.311 140.946 100.421 141.194 100.641 141.378C100.861 141.558 101.257 141.736 101.829 141.912L103.269 142.32C104.005 142.524 104.529 142.842 104.841 143.274C105.157 143.702 105.315 144.198 105.315 144.762C105.315 145.222 105.185 145.63 104.925 145.986C104.665 146.338 104.299 146.616 103.827 146.82C103.359 147.02 102.817 147.12 102.201 147.12ZM101.733 137.028H102.759V138.576H101.733V137.028ZM101.661 146.706H102.687V148.254H101.661V146.706ZM109.517 147.132C109.037 147.132 108.589 147.042 108.173 146.862C107.761 146.678 107.415 146.418 107.135 146.082C106.859 145.746 106.689 145.344 106.625 144.876H107.705C107.805 145.272 108.013 145.594 108.329 145.842C108.645 146.086 109.029 146.208 109.481 146.208C109.993 146.208 110.431 146.074 110.795 145.806C111.163 145.538 111.437 145.124 111.617 144.564C111.797 144.004 111.865 143.286 111.821 142.41C111.721 142.714 111.563 142.982 111.347 143.214C111.131 143.442 110.871 143.622 110.567 143.754C110.263 143.886 109.927 143.952 109.559 143.952C108.987 143.952 108.483 143.84 108.047 143.616C107.611 143.392 107.271 143.072 107.027 142.656C106.787 142.24 106.667 141.742 106.667 141.162C106.667 140.582 106.787 140.07 107.027 139.626C107.267 139.182 107.611 138.834 108.059 138.582C108.507 138.33 109.039 138.204 109.655 138.204C110.327 138.204 110.909 138.378 111.401 138.726C111.893 139.07 112.273 139.566 112.541 140.214C112.809 140.858 112.943 141.632 112.943 142.536C112.943 143.508 112.809 144.336 112.541 145.02C112.277 145.704 111.889 146.228 111.377 146.592C110.869 146.952 110.249 147.132 109.517 147.132ZM109.679 143.01C109.999 143.01 110.303 142.936 110.591 142.788C110.879 142.64 111.113 142.444 111.293 142.2C111.477 141.952 111.569 141.682 111.569 141.39C111.573 140.942 111.497 140.548 111.341 140.208C111.185 139.864 110.963 139.596 110.675 139.404C110.387 139.208 110.051 139.11 109.667 139.11C109.315 139.11 109.003 139.194 108.731 139.362C108.463 139.53 108.251 139.764 108.095 140.064C107.943 140.364 107.867 140.712 107.867 141.108C107.867 141.688 108.021 142.15 108.329 142.494C108.637 142.838 109.087 143.01 109.679 143.01ZM113.867 138.324H119.957V139.284C119.649 139.704 119.343 140.182 119.039 140.718C118.739 141.25 118.453 141.808 118.181 142.392C117.909 142.972 117.665 143.546 117.449 144.114C117.233 144.678 117.053 145.21 116.909 145.71C116.769 146.206 116.679 146.636 116.639 147H115.433C115.497 146.604 115.611 146.114 115.775 145.53C115.943 144.946 116.163 144.308 116.435 143.616C116.707 142.92 117.035 142.202 117.419 141.462C117.803 140.722 118.243 139.996 118.739 139.284H113.867V138.324ZM121.92 138.324H127.098L127.068 139.284H122.868L122.646 142.086C122.934 141.818 123.248 141.628 123.588 141.516C123.932 141.4 124.304 141.342 124.704 141.342C125.228 141.342 125.71 141.45 126.15 141.666C126.594 141.878 126.95 142.194 127.218 142.614C127.486 143.03 127.62 143.546 127.62 144.162C127.62 144.762 127.49 145.284 127.23 145.728C126.97 146.172 126.604 146.518 126.132 146.766C125.66 147.01 125.106 147.132 124.47 147.132C123.934 147.132 123.438 147.038 122.982 146.85C122.526 146.662 122.134 146.4 121.806 146.064C121.482 145.728 121.244 145.342 121.092 144.906L122.052 144.504C122.196 144.832 122.376 145.124 122.592 145.38C122.812 145.636 123.072 145.836 123.372 145.98C123.672 146.124 124.012 146.196 124.392 146.196C125.008 146.196 125.502 146.018 125.874 145.662C126.25 145.302 126.438 144.814 126.438 144.198C126.438 143.814 126.35 143.48 126.174 143.196C125.998 142.908 125.76 142.684 125.46 142.524C125.164 142.364 124.836 142.284 124.476 142.284C124.24 142.284 124.02 142.306 123.816 142.35C123.612 142.39 123.41 142.47 123.21 142.59C123.01 142.71 122.8 142.892 122.58 143.136C122.556 143.148 122.538 143.154 122.526 143.154C122.514 143.15 122.494 143.142 122.466 143.13L121.53 142.836L121.92 138.324ZM133.453 147.078C133.117 147.078 132.845 147.032 132.637 146.94C132.433 146.848 132.275 146.724 132.163 146.568C132.055 146.412 131.981 146.234 131.941 146.034C131.905 145.83 131.887 145.62 131.887 145.404V138.084H132.979V145.296C132.979 145.608 133.039 145.842 133.159 145.998C133.283 146.154 133.455 146.24 133.675 146.256L134.011 146.262V146.982C133.919 147.01 133.823 147.032 133.723 147.048C133.623 147.068 133.533 147.078 133.453 147.078ZM136.638 140.796V147H135.564V140.796H136.638ZM136.662 138.33V139.482H135.528V138.33H136.662ZM138.66 147V140.796H139.728V141.696C139.9 141.424 140.136 141.186 140.436 140.982C140.736 140.778 141.126 140.676 141.606 140.676C141.83 140.676 142.058 140.714 142.29 140.79C142.526 140.866 142.742 140.98 142.938 141.132C143.134 141.284 143.286 141.47 143.394 141.69C143.586 141.386 143.846 141.142 144.174 140.958C144.502 140.77 144.872 140.676 145.284 140.676C145.5 140.676 145.726 140.71 145.962 140.778C146.198 140.842 146.416 140.958 146.616 141.126C146.82 141.29 146.986 141.52 147.114 141.816C147.242 142.108 147.306 142.484 147.306 142.944V147H146.19V143.052C146.19 142.676 146.13 142.386 146.01 142.182C145.89 141.974 145.732 141.828 145.536 141.744C145.344 141.66 145.138 141.618 144.918 141.618C144.726 141.618 144.522 141.656 144.306 141.732C144.09 141.808 143.906 141.936 143.754 142.116C143.602 142.296 143.526 142.542 143.526 142.854V147H142.422V142.728C142.422 142.484 142.356 142.28 142.224 142.116C142.096 141.952 141.934 141.828 141.738 141.744C141.546 141.66 141.354 141.618 141.162 141.618C140.95 141.618 140.736 141.66 140.52 141.744C140.308 141.828 140.128 141.962 139.98 142.146C139.836 142.326 139.764 142.562 139.764 142.854V147H138.66ZM150.243 140.796V147H149.169V140.796H150.243ZM150.267 138.33V139.482H149.133V138.33H150.267ZM155.429 141.606H154.031V145.464C154.031 145.684 154.053 145.846 154.097 145.95C154.145 146.05 154.223 146.114 154.331 146.142C154.443 146.17 154.595 146.184 154.787 146.184H155.465V146.928C155.389 146.956 155.273 146.98 155.117 147C154.965 147.02 154.775 147.03 154.547 147.03C154.119 147.03 153.787 146.972 153.551 146.856C153.315 146.74 153.149 146.568 153.053 146.34C152.961 146.112 152.915 145.832 152.915 145.5V141.606H151.907V140.796H152.945L153.215 138.99H154.031V140.79H155.429V141.606Z" fill="#696868"/>
</svg>
